# File created by Blade
# Date/Time:  Tue Jan 27 18:05:41 2015
# Frame Rate: 120.000 fps
#------------------------------------------------------
:FULLY-SPECIFIED
:DEGREES
3068
root -1.514892 31.890217 -5.969807 7.610633 14.656824 3.804960
Spine -6.426278 -12.751450 -4.383923
Head -1.602157 -49.921189 -5.935164
LeftShoulder -10.816464 14.927645 7.603555
LeftArm 25.969889 40.990907 -67.484602
LeftForeArm -1.968947 -0.000000 17.691765
LeftHand -11.041536 0.000000 -4.450202
LeftHandThumb1 -26.253704 0.000000 33.147579
RightShoulder -9.922095 19.009310 -43.742958
RightArm 22.828890 46.014776 27.777210
RightForeArm 22.828636 -0.000000 100.940572
RightHand -5.284404 0.000000 11.104560
RightHandThumb1 -24.326973 -0.000000 -32.862282
LeftUpLeg -2.895384 -5.117728 -0.325050
LeftLeg 0.844266 -0.000000 -0.000000
LeftFoot -16.022873 13.817847 -24.661106
LeftToeBase 8.608947 -0.000000 -0.000000
RightUpLeg 1.754720 -7.915281 -2.983945
RightLeg -2.919032 -0.000000 0.000000
RightFoot -17.018451 -17.461434 11.096157
RightToeBase 5.063578 -0.000000 -0.000000
3069
root -1.514452 31.889392 -5.973441 7.614997 14.690425 3.805553
Spine -6.429774 -12.759664 -4.417543
Head -1.857068 -49.911812 -5.621784
LeftShoulder -10.853281 14.933758 7.620737
LeftArm 25.964717 40.989553 -67.510911
LeftForeArm -1.989838 -0.000000 17.641267
LeftHand -10.960206 -0.000000 -4.456110
LeftHandThumb1 -26.253704 0.000000 33.147579
RightShoulder -10.005963 18.655498 -43.777363
RightArm 22.187688 44.032108 25.878059
RightForeArm 21.604651 0.000000 100.480819
RightHand -5.464066 -0.000000 11.086309
RightHandThumb1 -24.326973 -0.000000 -32.862282
LeftUpLeg -2.902279 -5.129861 -0.324502
LeftLeg 0.833966 -0.000000 -0.000000
LeftFoot -15.975220 13.795297 -24.591717
LeftToeBase 8.467658 -0.000000 -0.000000
RightUpLeg 1.752594 -7.932492 -2.981779
RightLeg -2.925895 -0.000000 0.000000
RightFoot -17.032408 -17.473110 11.118965
RightToeBase 5.076690 -0.000000 -0.000000
3070
root -1.514153 31.888425 -5.976193 7.615883 14.733732 3.807632
Spine -6.438585 -12.790088 -4.450571
Head -2.020737 -49.910534 -5.400858
LeftShoulder -10.895026 14.965073 7.635343
LeftArm 25.947908 40.950329 -67.557374
LeftForeArm -1.959521 -0.000000 17.621089
LeftHand -11.006516 -0.000000 -4.508412
LeftHandThumb1 -26.253704 0.000000 33.147579
RightShoulder -10.064862 18.320605 -43.803495
RightArm 21.601785 41.993794 24.008785
RightForeArm 20.076596 -0.000000 100.016121
RightHand -5.578829 -0.000000 11.027398
RightHandThumb1 -24.326973 -0.000000 -32.862282
LeftUpLeg -2.906897 -5.141858 -0.323195
LeftLeg 0.822620 -0.000000 -0.000000
LeftFoot -15.978092 13.787572 -24.588359
LeftToeBase 8.586565 -0.000000 -0.000000
RightUpLeg 1.756890 -7.984541 -2.979316
RightLeg -2.930796 -0.000000 0.000000
RightFoot -17.031157 -17.465363 11.103557
RightToeBase 5.070223 -0.000000 -0.000000
3071
root -1.514109 31.887939 -5.978860 7.606178 14.763975 3.807707
Spine -6.433578 -12.799497 -4.490199
Head -2.208437 -49.902694 -5.174049
LeftShoulder -10.917359 14.974628 7.653558
LeftArm 25.891513 40.920595 -67.618592
LeftForeArm -1.920589 -0.000000 17.621344
LeftHand -11.061549 -0.000000 -4.402866
LeftHandThumb1 -26.253704 0.000000 33.147579
RightShoulder -10.136894 18.023241 -43.860974
RightArm 21.067274 39.789380 22.176341
RightForeArm 19.151550 -0.000000 99.591390
RightHand -5.821142 -0.000000 10.397640
RightHandThumb1 -24.326973 -0.000000 -32.862282
LeftUpLeg -2.899497 -5.138545 -0.321999
LeftLeg 0.809004 -0.000000 -0.000000
LeftFoot -15.972309 13.764316 -24.597285
LeftToeBase 8.657529 -0.000000 -0.000000
RightUpLeg 1.766138 -8.018024 -2.978010
RightLeg -2.929210 -0.000000 0.000000
RightFoot -17.038438 -17.471002 11.111066
RightToeBase 5.100122 -0.000000 -0.000000
3072
root -1.513803 31.886987 -5.981664 7.602150 14.793043 3.810755
Spine -6.440644 -12.813367 -4.532430
Head -2.344636 -49.907837 -5.018723
LeftShoulder -10.926363 15.006143 7.666087
LeftArm 25.817009 40.846851 -67.695518
LeftForeArm -1.840540 -0.000000 17.646503
LeftHand -11.035524 -0.000000 -4.306934
LeftHandThumb1 -26.253704 0.000000 33.147579
RightShoulder -10.216221 17.605277 -43.938597
RightArm 20.730988 37.720785 20.596566
RightForeArm 18.177928 -0.000000 99.176764
RightHand -6.105129 0.000000 10.759480
RightHandThumb1 -24.326973 -0.000000 -32.862282
LeftUpLeg -2.892242 -5.150272 -0.322131
LeftLeg 0.785560 -0.000000 -0.000000
LeftFoot -15.954736 13.740816 -24.610803
LeftToeBase 8.603340 -0.000000 -0.000000
RightUpLeg 1.774938 -8.025791 -2.978317
RightLeg -2.939215 -0.000000 0.000000
RightFoot -17.046533 -17.498081 11.111146
RightToeBase 5.078969 -0.000000 -0.000000
3073
root -1.513293 31.886569 -5.985374 7.601943 14.826109 3.811081
Spine -6.449349 -12.853051 -4.565045
Head -2.508274 -49.890086 -4.817917
LeftShoulder -10.951505 15.022179 7.668107
LeftArm 25.737252 40.798524 -67.763859
LeftForeArm -1.790109 -0.000000 17.656588
LeftHand -11.025089 0.000000 -4.318097
LeftHandThumb1 -26.253704 0.000000 33.147579
RightShoulder -10.284809 17.266404 -44.017787
RightArm 20.440189 35.573787 19.056355
RightForeArm 17.395151 0.000000 98.720005
RightHand -6.133334 -0.000000 11.554979
RightHandThumb1 -24.326973 -0.000000 -32.862282
LeftUpLeg -2.897393 -5.145399 -0.322224
LeftLeg 0.778736 -0.000000 -0.000000
LeftFoot -15.907339 13.751510 -24.470952
LeftToeBase 8.531352 -0.000000 -0.000000
RightUpLeg 1.772894 -8.062065 -2.977375
RightLeg -2.935083 -0.000000 0.000000
RightFoot -17.057249 -17.484986 11.122958
RightToeBase 5.111922 -0.000000 -0.000000
3074
root -1.513579 31.885853 -5.987112 7.594437 14.836397 3.807535
Spine -6.450586 -12.879690 -4.597757
Head -2.698470 -49.892511 -4.586543
LeftShoulder -11.008547 15.051721 7.654655
LeftArm 25.705839 40.786891 -67.782250
LeftForeArm -1.697672 0.000000 17.650211
LeftHand -11.110741 -0.000000 -4.765663
LeftHandThumb1 -26.253704 0.000000 33.147579
RightShoulder -10.371026 16.953751 -44.115217
RightArm 20.265472 33.341255 17.595786
RightForeArm 16.841508 -0.000000 98.275573
RightHand -6.139784 -0.000000 11.546767
RightHandThumb1 -24.326973 -0.000000 -32.862282
LeftUpLeg -2.885239 -5.141551 -0.317073
LeftLeg 0.755953 -0.000000 -0.000000
LeftFoot -15.909986 13.711728 -24.548966
LeftToeBase 8.581067 -0.000000 -0.000000
RightUpLeg 1.776721 -8.072016 -2.972521
RightLeg -2.932664 -0.000000 0.000000
RightFoot -17.057170 -17.490864 11.108564
RightToeBase 5.101541 -0.000000 -0.000000
3075
root -1.513426 31.885126 -5.990648 7.587843 14.854963 3.803869
Spine -6.449091 -12.917551 -4.636769
Head -2.900961 -49.896602 -4.303119
LeftShoulder -11.054547 15.048740 7.648752
LeftArm 25.651620 40.811859 -67.804573
LeftForeArm -1.750024 0.000000 17.622910
LeftHand -11.161951 0.000000 -4.829541
LeftHandThumb1 -26.253704 0.000000 33.147579
RightShoulder -10.425226 16.584013 -44.201071
RightArm 20.172076 31.218346 16.202045
RightForeArm 16.224135 0.000000 97.868287
RightHand -6.507895 -0.000000 11.426030
RightHandThumb1 -24.326973 -0.000000 -32.862282
LeftUpLeg -2.878672 -5.152928 -0.312991
LeftLeg 0.734792 -0.000000 -0.000000
LeftFoot -15.912256 13.708213 -24.589942
LeftToeBase 8.602807 -0.000000 -0.000000
RightUpLeg 1.775100 -8.082899 -2.969009
RightLeg -2.925440 -0.000000 0.000000
RightFoot -17.061658 -17.496702 11.110067
RightToeBase 5.059915 -0.000000 -0.000000
3076
root -1.513524 31.884820 -5.994106 7.575200 14.863966 3.804179
Spine -6.451246 -12.956391 -4.691562
Head -3.055347 -49.901587 -4.045538
LeftShoulder -11.098037 15.088200 7.649288
LeftArm 25.609169 40.766149 -67.859282
LeftForeArm -1.795261 -0.000000 17.582777
LeftHand -11.185286 -0.000000 -4.321135
LeftHandThumb1 -26.253704 0.000000 33.147579
RightShoulder -10.502849 16.158623 -44.232352
RightArm 20.370248 29.287928 14.965235
RightForeArm 15.873489 0.000000 97.516978
RightHand -6.789727 -0.000000 10.513489
RightHandThumb1 -24.326973 -0.000000 -32.862282
LeftUpLeg -2.866027 -5.158909 -0.312722
LeftLeg 0.727479 -0.000000 -0.000000
LeftFoot -15.877341 13.676855 -24.522898
LeftToeBase 8.512467 -0.000000 -0.000000
RightUpLeg 1.782056 -8.082329 -2.969919
RightLeg -2.922299 -0.000000 0.000000
RightFoot -17.071551 -17.511164 11.114836
RightToeBase 5.089032 -0.000000 -0.000000
3077
root -1.512869 31.885109 -5.997391 7.557892 14.861417 3.798326
Spine -6.468346 -13.002066 -4.724608
Head -3.090738 -49.928887 -3.960367
LeftShoulder -11.149845 15.146793 7.606150
LeftArm 25.568317 40.679213 -67.895873
LeftForeArm -1.703946 -0.000000 17.522029
LeftHand -11.050317 -0.000000 -4.239261
LeftHandThumb1 -26.253704 0.000000 33.147579
RightShoulder -10.507460 15.743361 -44.271790
RightArm 20.491419 27.188719 13.744232
RightForeArm 14.623314 -0.000000 97.159410
RightHand -6.924624 -0.000000 10.210411
RightHandThumb1 -24.326973 -0.000000 -32.862282
LeftUpLeg -2.855699 -5.145090 -0.316169
LeftLeg 0.728268 -0.000000 -0.000000
LeftFoot -15.923516 13.692748 -24.641405
LeftToeBase 8.619431 -0.000000 -0.000000
RightUpLeg 1.788085 -8.075601 -2.967827
RightLeg -2.914300 -0.000000 0.000000
RightFoot -17.063028 -17.522336 11.106383
RightToeBase 5.055259 -0.000000 -0.000000
3078
root -1.514137 31.884810 -6.000359 7.544509 14.844222 3.787693
Spine -6.482478 -13.023793 -4.777521
Head -3.228880 -49.964484 -3.698788
LeftShoulder -11.178271 15.180497 7.604534
LeftArm 25.478398 40.622666 -67.971126
LeftForeArm -1.607980 -0.000000 17.500809
LeftHand -11.087267 0.000000 -4.277018
LeftHandThumb1 -26.253704 0.000000 33.147579
RightShoulder -10.505489 15.426004 -44.323457
RightArm 20.602156 25.140644 12.655211
RightForeArm 13.475441 -0.000000 96.800221
RightHand -7.104728 -0.000000 10.446017
RightHandThumb1 -24.326973 -0.000000 -32.862282
LeftUpLeg -2.842546 -5.125020 -0.306605
LeftLeg 0.711781 -0.000000 -0.000000
LeftFoot -15.874709 13.730579 -24.458200
LeftToeBase 8.578468 -0.000000 -0.000000
RightUpLeg 1.785327 -8.043217 -2.958650
RightLeg -2.905185 -0.000000 0.000000
RightFoot -17.067516 -17.537630 11.102938
RightToeBase 5.117409 -0.000000 -0.000000
3079
root -1.514178 31.885134 -6.003856 7.522900 14.830374 3.781372
Spine -6.487904 -13.058986 -4.826996
Head -3.364552 -50.006015 -3.496001
LeftShoulder -11.211769 15.220098 7.581716
LeftArm 25.399493 40.570214 -68.018359
LeftForeArm -1.611407 -0.000000 17.491867
LeftHand -11.046451 -0.000000 -4.433223
LeftHandThumb1 -26.253704 0.000000 33.147579
RightShoulder -10.481274 15.172818 -44.377782
RightArm 20.682579 23.068985 11.640600
RightForeArm 11.988230 -0.000000 96.424007
RightHand -7.029603 0.000000 11.429422
RightHandThumb1 -24.326973 -0.000000 -32.862282
LeftUpLeg -2.826400 -5.132737 -0.300402
LeftLeg 0.703831 -0.000000 -0.000000
LeftFoot -15.896688 13.707343 -24.584707
LeftToeBase 8.641453 -0.000000 -0.000000
RightUpLeg 1.790801 -8.037905 -2.958956
RightLeg -2.892189 -0.000000 0.000000
RightFoot -17.063213 -17.507474 11.205982
RightToeBase 4.994882 -0.000000 -0.000000
